<?xml version="1.0" encoding="UTF-8" standalone="no"?>
<!DOCTYPE svg PUBLIC "-//W3C//DTD SVG 1.1//EN" "http://www.w3.org/Graphics/SVG/1.1/DTD/svg11.dtd">
<!-- Created with Vectornator (http://vectornator.io/) -->
<svg height="100%" stroke-miterlimit="10" style="fill-rule:nonzero;clip-rule:evenodd;stroke-linecap:round;stroke-linejoin:round;" version="1.1" viewBox="0 0 169.61 200" width="100%" xml:space="preserve" xmlns="http://www.w3.org/2000/svg" xmlns:xlink="http://www.w3.org/1999/xlink">
<defs/>
<g id="Untitled">
<g opacity="1">
<path d="M140.44 178.38L140.44 129.73L162.05 129.73L162.05 200L0 200L0 129.73L21.61 129.73L21.61 178.38L140.44 178.38Z" fill="#ffffff" fill-rule="nonzero" opacity="1" stroke="none"/>
<path d="M124.24 140.54L128.56 124.32L41.59 106.49L37.81 124.32L124.24 140.54ZM49.7 82.16L130.72 120L138.28 103.78L57.26 65.95L49.7 82.16ZM72.38 42.16L140.44 99.46L151.79 85.95L83.19 28.65L71.84 42.16L72.38 42.16ZM116.14 0L101.55 10.81L155.03 82.7L169.61 71.89L116.14 0ZM37.81 162.16L124.24 162.16L124.24 145.95L37.81 145.95L37.81 162.16Z" fill="#ffffff" fill-rule="nonzero" opacity="1" stroke="none"/>
</g>
</g>
</svg>
